{"title":"Easy Rider(1969)MP-4[DaScubaDude]","uid":12964934,"size":957360661,"categoryP":"video","categoryS":"movies","magnet":"?xt=urn:btih:12db1d10c789df265871c73d5814ee5341254274&amp;dn=Easy+Rider%281969%29MP-4%5BDaScubaDude%5D&amp;tr=udp%3A%2F%2Ftracker.leechers-paradise.org%3A6969&amp;tr=udp%3A%2F%2Fzer0day.ch%3A1337&amp;tr=udp%3A%2F%2Fopen.demonii.com%3A1337&amp;tr=udp%3A%2F%2Ftracker.coppersurfer.tk%3A6969&amp;tr=udp%3A%2F%2Fexodus.desync.com%3A6969","seeders":1,"leechers":0,"uploader":"dascuba","files":1,"time":1449881351,"description":"Two counterculture bikers travel from Los Angeles to New Orleans in search of America.\r\nDirector: Dennis Hopper\r\nWriters: Peter Fonda, Dennis Hopper | 1 more credit »\r\nStars: Peter Fonda, Dennis Hopper, Jack Nicholson \r\n\r\n\r\nGeneral\r\nComplete name                            : Easy RiderEasy Rider.mp4\r\nFormat                                   : MPEG-4\r\nFormat profile                           : Base Media\r\nCodec ID                                 : isom\r\nFile size                                : 913 MiB\r\nDuration                                 : 1h 35mn\r\nOverall bit rate mode                    : Variable\r\nOverall bit rate                         : 1 337 Kbps\r\nMovie name                               : DVD_VIDEO\r\nGenre                                    : Drama\r\nWriting application                      : Lavf54.6.100\r\n\r\nVideo\r\nID                                       : 1\r\nFormat                                   : AVC\r\nFormat/Info                              : Advanced Video Codec\r\nFormat profile                           :   \r\nFormat settings, CABAC                   : No\r\nFormat settings, ReFrames                : 6 frames\r\nCodec ID                                 : avc1\r\nCodec ID/Info                            : Advanced Video Coding\r\nDuration                                 : 1h 35mn\r\nBit rate                                 : 1 202 Kbps\r\nWidth                                    : 720 pixels\r\nHeight                                   : 404 pixels\r\nDisplay aspect ratio                     : 16:9\r\nFrame rate mode                          : Constant\r\nFrame rate                               : 29.970 fps\r\nColor space                              : YUV\r\nChroma subsampling                       : 4:2:0\r\nBit depth                                : 8 bits\r\nScan type                                : Progressive\r\nBits/(Pixel*Frame)                       : 0.138\r\nStream size                              : 821 MiB (90%)\r\n\r\nAudio\r\nID                                       : 2\r\nFormat                                   : AAC\r\nFormat/Info                              : Advanced Audio Codec\r\nFormat profile                           : LC\r\nCodec ID                                 : 40\r\nDuration                                 : 1h 35mn\r\nBit rate mode                            : Variable\r\nBit rate                                 : 128 Kbps\r\nMaximum bit rate                         : 166 Kbps\r\nChannel(s)                               : 2 channels\r\nChannel positions                        : Front: L R\r\nSampling rate                            : 44.1 KHz\r\nCompression mode                         : Lossy\r\nStream size                              : 87.4 MiB (10%)","torrent":{"xt":"urn:btih:12db1d10c789df265871c73d5814ee5341254274","amp;dn":"Easy+Rider%281969%29MP-4%5BDaScubaDude%5D","amp;tr":["udp%3A%2F%2Ftracker.leechers-paradise.org%3A6969","udp%3A%2F%2Fzer0day.ch%3A1337","udp%3A%2F%2Fopen.demonii.com%3A1337","udp%3A%2F%2Ftracker.coppersurfer.tk%3A6969","udp%3A%2F%2Fexodus.desync.com%3A6969"],"infoHash":"12db1d10c789df265871c73d5814ee5341254274","infoHashBuffer":{"type":"Buffer","data":[18,219,29,16,199,137,223,38,88,113,199,61,88,20,238,83,65,37,66,116]},"announce":[],"urlList":[]}}